<svg xmlns="http://www.w3.org/2000/svg" width="161" height="40" viewBox="0 0 161 40">
  <g fill="none" fill-rule="evenodd">
    <path fill="#FFF" d="M102.916793 19.6279907C102.916793 20.7156987 103.083135 21.7222346 103.416476 22.6484877 103.74916 23.5745184 104.234598 24.3831274 104.872133 25.0738699 105.50901 25.7646123 106.269494 26.3083551 107.153583 26.7050984 108.037014 27.102064 109.02893 27.300658 110.130206 27.300658 111.230825 27.300658 112.22274 27.102064 113.10683 26.7050984 113.990261 26.3083551 114.750745 25.7646123 115.388279 25.0738699 116.025157 24.3831274 116.510595 23.5745184 116.843936 22.6484877 117.17662 21.7222346 117.34362 20.7156987 117.34362 19.6279907 117.34362 18.5407274 117.17662 17.5335244 116.843936 16.6072712 116.510595 15.6812405 116.025157 14.8732987 115.388279 14.1821115 114.750745 13.4918138 113.990261 12.9474038 113.10683 12.5506605 112.22274 12.1536949 111.230825 11.9553233 110.130206 11.9553233 109.02893 11.9553233 108.037014 12.1536949 107.153583 12.5506605 106.269494 12.9474038 105.50901 13.4918138 104.872133 14.1821115 104.234598 14.8732987 103.74916 15.6812405 103.416476 16.6072712 103.083135 17.5335244 102.916793 18.5407274 102.916793 19.6279907zM99.5272727 9.30955292L102.916793 9.30955292 102.916793 12.3080334 103.00358 12.3080334C103.930405 11.1911923 105.009327 10.3238724 106.241003 9.70651856 107.472021 9.08916472 108.826646 8.7804878 110.304 8.7804878 111.89685 8.7804878 113.352727 9.05269281 114.67119 9.59621326 115.989215 10.1406233 117.11153 10.8969707 118.039013 11.867257 118.965838 12.8370985 119.69016 13.9837398 120.211759 15.3065138 120.73314 16.6295102 120.993939 18.0701507 120.993939 19.6279907 120.993939 21.1864977 120.73314 22.6262487 120.211759 23.9492451 119.69016 25.2720191 118.973289 26.4186604 118.06071 27.388502 117.14813 28.3587883 116.06855 29.1162476 114.823505 29.6597681 113.577365 30.2030661 112.244656 30.4752711 110.82538 30.4752711 109.000439 30.4752711 107.39926 30.071189 106.023816 29.2628024 104.647495 28.4544158 103.640676 27.4623353 103.00358 26.2863386L102.916793 26.2863386 102.916793 40 99.5272727 40 99.5272727 9.30955292zM150.976332 34.135361C150.621563 35.0173586 150.258965 35.8177391 149.889657 36.5385042 149.519678 37.2586021 149.076105 37.8757335 148.559163 38.3905657 148.041326 38.9045083 147.420369 39.3014739 146.696292 39.5812402 145.97132 39.8601169 145.092004 40 144.057225 40 143.554151 40 143.029604 39.9704222 142.482911 39.9119337 141.935323 39.852778 141.425316 39.7057784 140.95244 39.4709349L141.396013 36.4724544C141.751005 36.6192316 142.120313 36.7150816 142.505056 36.7591148 142.888904 36.8031479 143.332477 36.8253869 143.83555 36.8253869 144.95891 36.8253869 145.787002 36.5164876 146.319154 35.8993561 146.851531 35.2820023 147.30942 34.4584932 147.694163 33.4299408L149.113461 29.5494628 140.509091 8.7804878 144.545311 8.7804878 150.976332 24.9635646 151.064912 24.9635646 157.230192 8.7804878 161 8.7804878 150.976332 34.135361z"/>
    <polygon points="0 .021 24.343 .021 24.343 30.998 0 30.998"/>
    <path fill="#C4AD6C" d="M6.68420076 23.0363206C7.03508144 23.7276098 7.50096212 24.287331 8.081625 24.7157073 8.66207008 25.1447526 9.34335795 25.4620767 10.1270133 25.6696864 10.9097973 25.8768502 11.7200246 25.9805436 12.5572595 25.9805436 13.1242008 25.9805436 13.7318712 25.9323763 14.3798352 25.8353728 15.0277992 25.7388153 15.6352519 25.5521672 16.202411 25.2756516 16.7693523 24.9995819 17.2415492 24.6193728 17.6200909 24.1352474 17.9977614 23.6520139 18.1870322 23.0363206 18.1870322 22.2897282 18.1870322 21.4885017 17.9369943 20.8386899 17.437572 20.3407387 16.937714 19.8432334 16.2832159 19.4284599 15.4734242 19.0966411 14.6634148 18.7650453 13.7449394 18.4747038 12.7190871 18.2260627 11.6927992 17.9771986 10.653661 17.7011289 9.60058333 17.3965157 8.5202803 17.120446 7.46720265 16.7817143 6.44156818 16.3805436 5.4150625 15.9802648 4.49724053 15.4617979 3.68744886 14.8255889 2.87722159 14.1900488 2.22207008 13.3948432 1.72286553 12.4410871 1.22278977 11.487331.973405303 10.333324.973405303 8.97839721.973405303 7.45845296 1.29052652 6.13809059 1.92520455 5.01820209 2.55944697 3.89875958 3.38992992 2.96551916 4.416 2.21914983 5.44207008 1.47278049 6.60339583.919972125 7.89932386.560278746 9.19525189.201477352 10.4916155.0212961672 11.7875436.0212961672 13.2995322.0212961672 14.7507538.194341463 16.1416439.539763066 17.5318807.885630662 18.7674773 1.44557491 19.8477803 2.21914983 20.9274299 2.99361672 21.7849205 3.98149129 22.4195985 5.1841115 23.0534053 6.38650871 23.3711799 7.84512892 23.3711799 9.55908014L17.2147595 9.55908014C17.1605265 8.67445296 16.9782254 7.94168641 16.6682917 7.36122648 16.3572689 6.78076655 15.9456212 6.32451568 15.4326951 5.99269686 14.9197689 5.66110105 14.3321364 5.42650871 13.6711042 5.28780488 13.008983 5.14977003 12.2869659 5.08064111 11.503964 5.08064111 10.9908201 5.08064111 10.4774583 5.13639024 9.9649678 5.24632753 9.45204167 5.35715679 8.98616098 5.55071777 8.56754356 5.82678746 8.14892614 6.10352613 7.80457955 6.44894774 7.53493939 6.86349826 7.26464583 7.27827178 7.13004356 7.80387456 7.13004356 8.43941463 7.13004356 9.02009756 7.23763826 9.49039721 7.45391667 9.8494216 7.66954167 10.208892 8.09512879 10.5407108 8.73002462 10.8446551 9.36383144 11.1490453 10.2415777 11.4529895 11.362392 11.7569338 12.482553 12.061324 13.9474962 12.448223 15.7570038 12.9178537 16.2967197 13.0286829 17.0457443 13.2289338 18.0047311 13.5192753 18.9628466 13.8096167 19.9146458 14.2727805 20.859911 14.9085436 21.8051761 15.5447526 22.6221553 16.3948153 23.3106307 17.4587317 23.9991061 18.5233171 24.3432348 19.8847108 24.3432348 21.5435819 24.3432348 22.8982857 24.0864451 24.1559861 23.5735189 25.3171289 23.060375 26.4782718 22.2980644 27.4806411 21.2852803 28.3233449 20.2729318 29.1671638 19.0172973 29.8236655 17.5188125 30.2930732 16.0203277 30.7629268 14.2848731 30.9981882 12.3141913 30.9981882 10.7205265 30.9981882 9.17543182 30.7972683 7.67672917 30.3967666 6.17824432 29.9964878 4.85487311 29.3674146 3.70748674 28.509993 2.55944697 27.6534634 1.64815909 26.5612265.973405303 25.2339512.298433712 23.907122-.025875 22.3314286.00156818182 20.5066481L6.15777083 20.5066481C6.15777083 21.5018815 6.33310227 22.3454774 6.68420076 23.0363206M40.3311674 20.2475431C40.0871733 20.468025 39.782618 20.6394862 39.4164083 20.7632578 39.0506359 20.8870293 38.6575343 20.9901722 38.2373224 21.0726866 37.8168917 21.1549791 37.3765656 21.2239629 36.9161252 21.2785289 36.4550289 21.3342039 35.9945885 21.4025222 35.5337108 21.4850366 35.099725 21.5675509 34.6729541 21.6775701 34.2531793 21.8148722 33.8325301 21.9528397 33.4667577 22.138497 33.1556434 22.3718441 32.8434359 22.6058565 32.5926643 22.9017548 32.4033284 23.2586515 32.2133366 23.6164356 32.1186686 24.0700427 32.1186686 24.6199166 32.1186686 25.1425075 32.2133366 25.5828058 32.4033284 25.9399244 32.5926643 26.2974866 32.8506508 26.5791888 33.1759762 26.7854747 33.501083 26.9917606 33.8804106 27.1361607 34.3141779 27.2186751 34.7472892 27.3009676 35.194393 27.3422248 35.6559265 27.3422248 36.7943468 27.3422248 37.6747805 27.1501349 38.2985395 26.7648461 38.9216426 26.380001 39.3823016 25.919074 39.6807352 25.3829525 39.9787315 24.8466092 40.1615084 24.3040552 40.2297218 23.7537377 40.2970607 23.2038638 40.3311674 22.7637872 40.3311674 22.433508L40.3311674 20.2475431zM26.9958867 15.9164267C27.0772181 14.5416311 27.4158801 13.4004044 28.01231 12.4929683 28.6083026 11.5855322 29.3673952 10.857099 30.2891505 10.3067815 31.2104686 9.75712947 32.247006 9.36496448 33.3994188 9.13117381 34.5511757 8.89804858 35.7099288 8.7804878 36.8754595 8.7804878 37.9325484 8.7804878 39.0027553 8.85656959 40.0871733 9.00740228 41.1709354 9.15890041 42.1606855 9.45479865 43.0551117 9.89443158 43.949538 10.3345081 44.6813015 10.946046 45.2508396 11.7299323 45.8197218 12.5135969 46.1043815 13.5519025 46.1043815 14.8439619L46.1043815 25.9399244C46.1043815 26.9028137 46.1583837 27.8237804 46.2670442 28.7034898 46.3752673 29.5838648 46.5650405 30.2437578 46.8363636 30.6833907L40.9815995 30.6833907C40.8731577 30.3535551 40.7848302 30.0168433 40.7177099 29.6728117 40.6494965 29.3292237 40.6020532 28.9785377 40.5751614 28.6209755 39.6536248 29.5838648 38.5692067 30.2572884 37.3225633 30.6419117 36.0757012 31.0269787 34.8019473 31.2195122 33.501083 31.2195122 32.4979963 31.2195122 31.5629044 31.0957407 30.6955886 30.8484194 29.8280542 30.6008764 29.0693989 30.2160312 28.4189667 29.6934403 27.7685346 29.171293 27.2602136 28.5114 26.8944412 27.7133176 26.5286687 26.9161225 26.3454545 25.967651 26.3454545 24.8674596 26.3454545 23.6574709 26.5551233 22.6606443 26.9757725 21.8769797 27.3955472 21.0933152 27.937319 20.468025 28.6017436 20 29.265731 19.5328623 30.0248236 19.1821763 30.8788028 18.9481638 31.7325634 18.7150386 32.5926643 18.5293813 33.4601987 18.3914137 34.3275144 18.2541116 35.181275 18.1438707 36.021699 18.0615781 36.861467 17.978842 37.607223 17.8552922 38.2576552 17.6902635 38.9080874 17.5252348 39.4229673 17.2847898 39.8027322 16.9682629 40.1818413 16.6526233 40.3580592 16.1916964 40.3311674 15.5865911 40.3311674 14.9544247 40.2297218 14.4522406 40.0263934 14.080926 39.8232837 13.7096114 39.5519606 13.421033 39.2132986 13.2147471 38.8739807 13.0084612 38.4813164 12.8711591 38.0342126 12.8023971 37.5868902 12.733857 37.1054611 12.6992542 36.5910184 12.6992542 35.4528168 12.6992542 34.5579533 12.9465754 33.9075211 13.4416616 33.2570889 13.9365259 32.8771054 14.7616694 32.7691008 15.9164267L26.9958867 15.9164267zM47.8121212 12.9452448L47.8121212 9.05103536 51.2991892 9.05103536 51.2991892 7.4112174C51.2991892 5.52561412 51.886875 3.98190594 53.0629084 2.77921112 54.2387212 1.57695717 56.0167795.975609756 58.3959804.975609756 58.9152793.975609756 59.4350195.995889801 59.9547596 1.0371112 60.4740585 1.07811216 60.9803419 1.11250006 61.4727273 1.13939316L61.4727273 5.48461316C60.7886381 5.40261124 60.0780765 5.36161028 59.3394985 5.36161028 58.5459903 5.36161028 57.9786 5.5461146 57.6373275 5.9149028 57.294952 6.28391144 57.124426 6.90597977 57.124426 7.78022604L57.124426 9.05103536 61.1444703 9.05103536 61.1444703 12.9452448 57.124426 12.9452448 57.124426 30.2439024 51.2991892 30.2439024 51.2991892 12.9452448 47.8121212 12.9452448zM67.9864968 9.34649856L67.9864968 13.2268457 68.0687817 13.2268457C68.3418879 12.5801936 68.7109563 11.9809265 69.1762076 11.4281748 69.6410176 10.8762926 70.1742145 10.4043996 70.7760189 10.0133653 71.377382 9.62298307 72.0202185 9.31998039 72.7043077 9.10392252 73.3875145 8.88851674 74.0989584 8.7804878 74.8375365 8.7804878 75.2200617 8.7804878 75.6438397 8.84830476 76.1090909 8.9826345L76.1090909 14.3182205C75.8355435 14.2645321 75.5070659 14.2173645 75.1247613 14.1767178 74.7413537 14.1362885 74.3718441 14.1162912 74.0168942 14.1162912 72.9502798 14.1162912 72.0480145 14.2917023 71.3094364 14.6416552 70.5708583 14.9920428 69.9763338 15.4702393 69.5249806 16.076462 69.0738479 16.6826848 68.7519885 17.3901982 68.5609465 18.1985676 68.3692426 19.0069371 68.2737216 19.8831234 68.2737216 20.82604L68.2737216 30.2439024 62.4484848 30.2439024 62.4484848 9.34649856 67.9864968 9.34649856z"/>
    <path fill="#FFF" d="M135.860279,25.5265595 C135.360372,26.078807 134.734149,26.5239972 133.981387,26.8572842 C133.230634,27.1938754 132.351556,27.3595276 131.346386,27.3595276 C130.050422,27.3595276 128.965579,27.0907833 128.095651,26.5526339 C127.225947,26.0147048 126.79076,25.1042786 126.79076,23.8215754 C126.79076,22.4249864 127.440639,21.4185171 128.736604,20.8089963 C130.035915,20.1961713 131.792062,19.891521 134.003035,19.891521 L137.453956,19.891521 L137.453956,21.2028609 C137.425166,22.0454402 137.278765,22.8382358 137.013636,23.5830098 C136.746498,24.3240391 136.363757,24.9740918 135.860279,25.5265595 Z M145.882745,26.8198362 L141.269541,26.8198362 C141.069131,26.8198362 140.904876,26.6596911 140.904876,26.4598951 L140.904876,17.4010107 C140.904876,14.4899817 140.226208,12.3202022 138.868871,10.8932142 C137.511757,9.46820878 135.300785,8.7804878 132.234391,8.7804878 L119.042424,8.7804878 C119.596562,9.17765658 120.078615,9.59288849 120.551295,10.0737645 C121.073073,10.6046445 121.544191,11.1802419 121.966434,11.7983537 L133.338873,11.7983537 C134.479509,11.9747997 135.403667,12.4413574 136.105769,13.032815 C137.004486,13.7919074 137.453956,14.9122626 137.453956,16.3963037 L137.453956,17.0073664 L136.125631,17.0073664 C134.858679,17.0073664 133.463403,17.0661818 131.945605,17.1835922 C130.425798,17.3012229 129.010883,17.5917751 127.696842,18.0565705 C126.386594,18.5233484 125.285683,19.2359613 124.403034,20.1961713 C123.51503,21.1563813 123.074487,22.4820395 123.074487,24.1727052 C123.074487,25.1613317 123.27869,26.03431 123.692006,26.7911995 C124.105322,27.5502919 124.659237,28.1827221 125.352411,28.6922348 C126.045363,29.1999852 126.857712,29.5881224 127.787227,29.8500379 C128.716518,30.1119534 129.709191,30.2439024 130.772386,30.2439024 C132.366062,30.2439024 133.728755,29.9073113 134.867606,29.2374332 C135.939728,28.605003 136.80787,27.8031759 137.473818,26.8323923 C137.663292,28.7420185 139.307629,30.2419199 141.285832,30.2419199 L147.339394,30.2419199 L145.882745,26.8198362 Z"/>
    <path fill="#C4AD6C" d="M91.0707799,20.2475431 C90.8267859,20.468025 90.522012,20.6394862 90.1560209,20.7632578 C89.7902484,20.8870293 89.3969283,20.9901722 88.9769349,21.0726866 C88.5565043,21.1549791 88.1161781,21.2239629 87.6555191,21.2785289 C87.1946415,21.3342039 86.7342011,21.4025222 86.2733234,21.4850366 C85.8393376,21.5675509 85.4125666,21.6775701 84.9927919,21.8148722 C84.5721427,21.9528397 84.2063702,22.138497 83.8950373,22.3718441 C83.5830485,22.6058565 83.3322768,22.9017548 83.1429409,23.2586515 C82.9529492,23.6164356 82.8582812,24.0700427 82.8582812,24.6199166 C82.8582812,25.1425075 82.9529492,25.5828058 83.1429409,25.9399244 C83.3322768,26.2974866 83.5900447,26.5791888 83.9153701,26.7854747 C84.2404769,26.9917606 84.6198046,27.1361607 85.0537904,27.2186751 C85.4869017,27.3009676 85.9340055,27.3422248 86.3955391,27.3422248 C87.5337407,27.3422248 88.4143931,27.1501349 89.0379334,26.7648461 C89.6612552,26.380001 90.1216956,25.919074 90.4203478,25.3829525 C90.7183441,24.8466092 90.901121,24.3040552 90.9693344,23.7537377 C91.0364546,23.2038638 91.0707799,22.7637872 91.0707799,22.433508 L91.0707799,20.2475431 Z M77.7352807,15.9164267 C77.8168306,14.5416311 78.1554926,13.4004044 78.7519225,12.4929683 C79.3476965,11.5855322 80.1067892,10.857099 81.0285445,10.3067815 C81.9498625,9.75712947 82.9864,9.36496448 84.1390314,9.13117381 C85.2907882,8.89804858 86.4493227,8.7804878 87.6148534,8.7804878 C88.672161,8.7804878 89.7423679,8.85656959 90.8267859,9.00740228 C91.910548,9.15890041 92.9002981,9.45479865 93.7947243,9.89443158 C94.6891505,10.3345081 95.420914,10.946046 95.9902335,11.7299323 C96.5593343,12.5135969 96.8439941,13.5519025 96.8439941,14.8439619 L96.8439941,25.9399244 C96.8439941,26.9028137 96.8979963,27.8237804 97.0064381,28.7034898 C97.1148799,29.5838648 97.3044344,30.2437578 97.5757576,30.6833907 L91.7212121,30.6833907 C91.6127703,30.3535551 91.5244427,30.0168433 91.4573225,29.6728117 C91.3891091,29.3292237 91.3414472,28.9785377 91.314774,28.6209755 C90.3932373,29.5838648 89.3088193,30.2572884 88.0621759,30.6419117 C86.8153138,31.0269787 85.5413413,31.2195122 84.2404769,31.2195122 C83.2376089,31.2195122 82.302517,31.0957407 81.4352012,30.8484194 C80.5674482,30.6008764 79.8087928,30.2160312 79.1583607,29.6934403 C78.5079285,29.171293 77.9996075,28.5114 77.6340537,27.7133176 C77.2680627,26.9161225 77.0848485,25.967651 77.0848485,24.8674596 C77.0848485,23.6574709 77.2947358,22.6606443 77.7153851,21.8769797 C78.1349412,21.0933152 78.6769315,20.468025 79.3413562,20 C80.0053436,19.5328623 80.7644362,19.1821763 81.6184154,18.9481638 C82.4719573,18.7150386 83.3322768,18.5293813 84.1998112,18.3914137 C85.067127,18.2541116 85.9206689,18.1438707 86.7613115,18.0615781 C87.6010796,17.978842 88.3468356,17.8552922 88.9972678,17.6902635 C89.6476999,17.5252348 90.1625799,17.2847898 90.5423448,16.9682629 C90.9214538,16.6526233 91.0976718,16.1916964 91.0707799,15.5865911 C91.0707799,14.9544247 90.9693344,14.4522406 90.766006,14.080926 C90.5626776,13.7096114 90.2913545,13.421033 89.9526925,13.2147471 C89.6133746,13.0084612 89.220929,12.8711591 88.7736066,12.8023971 C88.3265028,12.733857 87.8450736,12.6992542 87.330631,12.6992542 C86.1922107,12.6992542 85.2975658,12.9465754 84.6471337,13.4416616 C83.9967015,13.9365259 83.6164993,14.7616694 83.5087134,15.9164267 L77.7352807,15.9164267 Z"/>
  </g>
</svg>
