<?xml version="1.0" standalone="no"?>
<!DOCTYPE svg PUBLIC "-//W3C//DTD SVG 20010904//EN"
 "http://www.w3.org/TR/2001/REC-SVG-20010904/DTD/svg10.dtd">
<svg version="1.0" xmlns="http://www.w3.org/2000/svg"
 width="361.000000pt" height="510.000000pt" viewBox="0 0 361.000000 510.000000"
 preserveAspectRatio="xMidYMid meet">

<g transform="translate(0.000000,510.000000) scale(0.100000,-0.100000)"
fill="#000000" stroke="none">
<path d="M1811 3654 c-23 -30 -27 -59 -9 -70 15 -9 70 52 66 74 -5 27 -34 25
-57 -4z"/>
<path d="M1589 3623 c-14 -37 0 -77 28 -81 23 -3 103 61 103 83 0 15 -31 25
-83 25 -32 0 -39 -4 -48 -27z"/>
<path d="M1925 3619 c-33 -18 -45 -41 -45 -80 0 -74 50 -74 129 3 59 56 54 82
-14 85 -27 2 -59 -2 -70 -8z"/>
<path d="M1706 3549 c-22 -18 -66 -86 -66 -104 0 -3 42 -5 94 -5 98 0 106 4
106 48 0 19 -71 82 -93 82 -8 0 -26 -9 -41 -21z"/>
<path d="M1475 3541 c-28 -12 -44 -33 -55 -70 l-9 -31 89 0 88 0 -8 36 c-5 20
-14 43 -22 50 -18 18 -59 25 -83 15z"/>
<path d="M2018 3483 c-32 -15 -58 -30 -58 -35 0 -4 45 -8 101 -8 99 0 100 0
93 23 -17 55 -47 59 -136 20z"/>
<path d="M1472 3362 c-58 -3 -64 -16 -19 -42 25 -14 30 -13 64 5 20 11 38 25
40 30 4 12 -4 12 -85 7z"/>
<path d="M1620 3335 c0 -20 6 -38 13 -41 15 -6 92 20 126 43 24 15 24 17 6 24
-11 4 -48 8 -82 8 l-63 1 0 -35z"/>
<path d="M1981 3315 c24 -64 53 -89 96 -82 76 13 112 55 98 115 -5 22 -9 22
-109 20 l-104 -3 19 -50z"/>
<path d="M1775 3301 c-46 -12 -73 -29 -80 -51 -10 -33 4 -75 36 -106 26 -24
39 -29 97 -32 77 -4 125 18 136 62 8 34 -16 90 -48 111 -30 20 -97 28 -141 16z"/>
<path d="M1502 3270 c-23 -10 -45 -25 -48 -33 -6 -16 61 -143 79 -150 18 -7
98 25 110 44 13 21 4 55 -32 112 -34 53 -46 56 -109 27z"/>
<path d="M2013 3174 c-20 -31 -10 -54 30 -68 56 -20 116 48 72 81 -32 23 -82
16 -102 -13z"/>
</g>
</svg>
