<?xml version="1.0" standalone="no"?>
<!DOCTYPE svg PUBLIC "-//W3C//DTD SVG 20010904//EN"
 "http://www.w3.org/TR/2001/REC-SVG-20010904/DTD/svg10.dtd">
<svg version="1.0" xmlns="http://www.w3.org/2000/svg"
 width="361.000000pt" height="297.000000pt" viewBox="0 0 361.000000 297.000000"
 preserveAspectRatio="xMidYMid meet">

<g transform="translate(0.000000,297.000000) scale(0.100000,-0.100000)"
fill="#000000" stroke="none">
<path d="M1823 2620 c-13 -5 -23 -17 -23 -25 0 -9 -4 -14 -8 -11 -10 6 -9 -51
1 -60 3 -4 17 -4 31 0 33 8 64 69 46 91 -14 17 -16 17 -47 5z"/>
<path d="M1597 2588 c-38 -29 -24 -118 18 -118 35 0 115 68 115 97 0 29 -101
45 -133 21z"/>
<path d="M1943 2570 c-17 -4 -39 -15 -48 -24 -25 -25 -29 -89 -7 -116 l18 -22
47 22 c25 12 57 35 69 52 13 16 29 36 36 44 10 11 9 17 -8 34 -21 21 -51 24
-107 10z"/>
<path d="M1718 2513 c-15 -4 -88 -109 -88 -127 0 -3 47 -6 104 -6 83 0 105 3
110 15 8 23 -9 59 -46 94 -32 30 -44 34 -80 24z"/>
<path d="M1447 2478 c-9 -7 -23 -32 -31 -55 l-15 -43 98 0 99 0 -9 38 c-4 20
-18 45 -30 55 -25 20 -88 23 -112 5z"/>
<path d="M2070 2450 c-14 -4 -38 -13 -55 -20 -16 -6 -30 -10 -31 -8 -2 6 -34
-25 -34 -33 0 -5 49 -9 109 -9 l108 0 -5 25 c-4 25 -37 56 -57 54 -5 0 -21 -4
-35 -9z"/>
<path d="M1424 2300 c-16 -6 -16 -8 4 -28 26 -26 73 -29 107 -6 42 28 31 41
-34 40 -33 0 -67 -3 -77 -6z"/>
<path d="M1614 2296 c-3 -9 -3 -28 0 -42 6 -22 11 -25 44 -23 20 2 53 13 73
25 20 13 39 21 42 18 2 -3 7 2 10 10 7 19 -9 23 -96 25 -53 2 -68 -1 -73 -13z"/>
<path d="M1960 2290 c0 -9 3 -20 7 -24 4 -3 8 -14 9 -24 2 -9 8 -18 13 -20 6
-2 11 -10 11 -17 0 -32 94 -51 124 -26 8 7 19 10 24 7 14 -8 32 40 32 85 l0
40 -110 -3 c-94 -2 -110 -5 -110 -18z"/>
<path d="M1785 2250 c-16 -4 -37 -9 -45 -11 -19 -5 -34 -19 -49 -47 -10 -19
-9 -31 4 -65 24 -61 57 -82 135 -83 78 -2 115 14 137 61 14 30 15 38 3 62 -24
48 -52 72 -89 79 -20 3 -43 7 -51 9 -8 1 -28 -1 -45 -5z"/>
<path d="M1515 2227 c-67 -40 -76 -49 -69 -70 4 -12 9 -24 13 -27 3 -3 12 -17
19 -32 37 -83 32 -79 83 -77 27 2 46 6 44 10 -3 4 9 12 25 18 39 13 39 37 -2
117 -37 73 -66 89 -113 61z"/>
<path d="M2017 2132 c-24 -26 -19 -96 7 -93 26 4 46 -1 41 -9 -3 -5 1 -10 10
-10 9 0 14 4 10 9 -3 5 3 12 14 16 19 6 31 24 37 56 8 41 -88 65 -119 31z"/>
<path d="M2 1290 c0 -14 2 -19 5 -12 2 6 2 18 0 25 -3 6 -5 1 -5 -13z"/>
<path d="M1968 1223 c6 -2 18 -2 25 0 6 3 1 5 -13 5 -14 0 -19 -2 -12 -5z"/>
<path d="M1512 1030 c0 -14 2 -19 5 -12 2 6 2 18 0 25 -3 6 -5 1 -5 -13z"/>
<path d="M1891 1004 c0 -11 3 -14 6 -6 3 7 2 16 -1 19 -3 4 -6 -2 -5 -13z"/>
<path d="M1770 960 c0 -5 5 -10 11 -10 5 0 7 5 4 10 -3 6 -8 10 -11 10 -2 0
-4 -4 -4 -10z"/>
</g>
</svg>
