<?xml version="1.0" encoding="UTF-8" standalone="no"?>
<!-- Generator: Adobe Illustrator 19.0.0, SVG Export Plug-In . SVG Version: 6.00 Build 0)  -->

<svg
   xmlns:dc="http://purl.org/dc/elements/1.1/"
   xmlns:cc="http://creativecommons.org/ns#"
   xmlns:rdf="http://www.w3.org/1999/02/22-rdf-syntax-ns#"
   xmlns:svg="http://www.w3.org/2000/svg"
   xmlns="http://www.w3.org/2000/svg"
   xmlns:sodipodi="http://sodipodi.sourceforge.net/DTD/sodipodi-0.dtd"
   xmlns:inkscape="http://www.inkscape.org/namespaces/inkscape"
   version="1.1"
   id="Layer_1"
   x="0px"
   y="0px"
   viewBox="0 0 700.00004 700"
   enable-background="new 0 0 1048.82 595.276"
   xml:space="preserve"
   sodipodi:docname="italac-logo.svg"
   width="700"
   height="700"
   inkscape:export-filename="G:\Users\suitedoalex\sites\italac-logo-0.png"
   inkscape:export-xdpi="561.73712"
   inkscape:export-ydpi="561.73712"
   inkscape:version="0.92.4 (5da689c313, 2019-01-14)"><metadata
   id="metadata17"><rdf:RDF><cc:Work
       rdf:about=""><dc:format>image/svg+xml</dc:format><dc:type
         rdf:resource="http://purl.org/dc/dcmitype/StillImage" /><dc:title></dc:title></cc:Work></rdf:RDF></metadata><defs
   id="defs15" /><sodipodi:namedview
   pagecolor="#ffffff"
   bordercolor="#666666"
   borderopacity="1"
   objecttolerance="10"
   gridtolerance="10"
   guidetolerance="10"
   inkscape:pageopacity="0"
   inkscape:pageshadow="2"
   inkscape:window-width="1600"
   inkscape:window-height="837"
   id="namedview13"
   showgrid="false"
   inkscape:zoom="0.31845314"
   inkscape:cx="-115.59086"
   inkscape:cy="689.29193"
   inkscape:window-x="-8"
   inkscape:window-y="-8"
   inkscape:window-maximized="1"
   inkscape:current-layer="Layer_1" />
<path
   d="m 443.22039,264.83235 c -20.47648,-15.62618 -39.05895,11.72537 -22.15853,21.28218 19.48734,11.01946 42.61332,24.21492 57.00555,59.16481 -4.44931,-35.51574 -15.55429,-65.7238 -34.84702,-80.44699"
   id="path2"
   inkscape:connector-curvature="0"
   style="clip-rule:evenodd;fill:#44b4e2;fill-rule:evenodd;stroke-width:0.61976695"
   inkscape:export-filename="G:\Users\suitedoalex\sites\italac-logo-4.png"
   inkscape:export-xdpi="84.922562"
   inkscape:export-ydpi="84.922562" />
<path
   d="m 492.88914,264.36009 c -11.82144,14.82544 -14.12263,41.57583 -10.23793,69.8341 2.62347,-26.77951 17.12416,-46.67403 28.95117,-56.9696 13.71235,-11.93795 -6.03963,-28.75843 -18.71324,-12.8645"
   id="path4"
   inkscape:connector-curvature="0"
   style="clip-rule:evenodd;fill:#f78d2b;fill-rule:evenodd;stroke-width:0.61976695"
   inkscape:export-filename="G:\Users\suitedoalex\sites\italac-logo-4.png"
   inkscape:export-xdpi="84.922562"
   inkscape:export-ydpi="84.922562" />
<path
   d="m 515.65566,293.20776 c -12.0774,5.60951 -24.49071,27.52819 -27.98124,47.63157 9.71361,-20.5273 23.57532,-29.2468 35.9031,-33.67194 11.3969,-4.09046 4.10286,-19.54497 -7.92186,-13.95963"
   id="path6"
   inkscape:connector-curvature="0"
   style="clip-rule:evenodd;fill:#e02927;fill-rule:evenodd;stroke-width:0.61976695"
   inkscape:export-filename="G:\Users\suitedoalex\sites\italac-logo-4.png"
   inkscape:export-xdpi="84.922562"
   inkscape:export-ydpi="84.922562" />
<path
   d="m 332.51947,430.41426 c -0.92469,-3.85186 -1.59218,-6.63523 -1.59218,-15.44398 0,-5.35664 0.11404,-15.03307 0.21444,-23.57036 0.0806,-6.86392 0.1568,-13.34544 0.1568,-16.21496 v -0.33653 c 0.003,-11.58903 0.009,-33.16125 -25.38007,-37.97684 -11.67765,-2.21629 -23.81269,-2.2981 -35.49902,-0.25349 -16.31412,2.47721 -26.61899,11.49482 -28.04569,18.72378 -0.74372,3.76942 0.87201,7.18992 4.67118,9.89024 2.41895,1.71862 6.4462,2.74495 10.77341,2.74495 4.07435,0 7.7694,-0.88998 10.13691,-2.44126 1.15091,-0.75488 2.1884,-1.50542 3.19242,-2.23116 3.86239,-2.79267 7.19859,-5.20419 14.07863,-5.87601 0.66067,-0.0651 1.31018,-0.0973 1.93119,-0.0973 7.37771,0 10.87319,4.71333 10.99839,9.09322 0.12023,4.21752 -2.06321,7.01143 -5.56179,8.1989 -5.68513,1.9281 -13.21344,3.83016 -20.49446,4.99408 -4.61726,0.73753 -8.97794,1.43476 -12.59242,2.27331 -14.9649,3.47317 -23.33485,11.7012 -24.87807,24.456 -2.19274,18.12757 5.43164,30.40329 21.46873,34.56503 3.11681,0.80941 6.35881,1.21908 9.63614,1.21908 12.00488,0 21.29333,-5.32814 24.72994,-7.61818 0.22373,-0.14936 0.51254,-0.36194 0.84846,-0.60861 1.72667,-1.26742 4.33589,-3.18188 6.49764,-3.18188 1.47504,0 2.57017,0.86272 3.08396,2.42825 0.56956,1.7372 1.90206,5.80411 10.34329,5.80411 5.61509,0 10.58252,-0.0589 14.20877,-0.10102 2.05205,-0.0242 3.66035,-0.0434 4.68668,-0.0434 0.74434,0 1.77006,-0.20019 2.43445,-1.15649 0.80507,-1.1571 0.90796,-3.15585 0.2981,-5.78056 -0.11837,-0.51193 -0.23427,-0.99349 -0.34583,-1.45893 m -34.45346,-21.75692 c -3.0319,8.71454 -10.82981,13.41733 -16.62711,13.41733 -7.0108,0 -11.64356,-3.37277 -12.71204,-9.25312 -1.32072,-7.25747 4.06195,-12.68787 10.03279,-14.42198 9.58283,-2.78275 14.92956,-6.05202 17.03305,-7.15645 0.86024,-0.45181 1.3889,0.23366 2.07374,1.348 1.87046,3.04057 1.69569,11.76999 0.19957,16.06622 m 179.21058,21.75692 c -0.92469,-3.85186 -1.59218,-6.63523 -1.59218,-15.44398 0,-5.35664 0.11403,-15.03307 0.21444,-23.57036 0.0806,-6.86392 0.1568,-13.34544 0.1568,-16.21496 v -0.33653 c 0.002,-11.58903 0.009,-33.16125 -25.38008,-37.97684 -11.67765,-2.21629 -23.81269,-2.2981 -35.49901,-0.25349 -16.31413,2.47721 -26.61899,11.49482 -28.0457,18.72378 -0.74372,3.76942 0.87201,7.18992 4.67119,9.89024 2.41895,1.71862 6.44619,2.74495 10.7734,2.74495 4.07435,0 7.7694,-0.88998 10.13691,-2.44126 1.15091,-0.75488 2.1884,-1.50542 3.19242,-2.23116 3.86239,-2.79205 7.1986,-5.20419 14.07863,-5.87601 0.66067,-0.0651 1.31019,-0.0973 1.93119,-0.0973 7.37771,0 10.87258,4.71333 10.99839,9.09384 0.12023,4.2169 -2.06321,7.01081 -5.56179,8.19828 -5.68512,1.92872 -13.21343,3.83078 -20.49445,4.99408 -4.61727,0.73753 -8.97857,1.43476 -12.59243,2.27331 -14.96489,3.47317 -23.33485,11.70182 -24.87807,24.456 -2.19273,18.12757 5.43164,30.40329 21.46873,34.56503 3.11681,0.80941 6.35943,1.21908 9.63614,1.21908 12.00427,0 21.29333,-5.32752 24.72994,-7.61818 0.22374,-0.14874 0.51255,-0.36194 0.84846,-0.60861 1.72667,-1.2668 4.33589,-3.18188 6.49764,-3.18188 1.47504,0 2.57017,0.86272 3.08396,2.42825 0.56895,1.7372 1.90206,5.80411 10.34329,5.80411 5.61509,0 10.58252,-0.0583 14.20878,-0.10102 2.05205,-0.0242 3.65972,-0.0434 4.68668,-0.0434 0.74372,0 1.77005,-0.20019 2.43444,-1.15587 0.80446,-1.15772 0.90796,-3.15647 0.29811,-5.78118 -0.11838,-0.51193 -0.23427,-0.99349 -0.34583,-1.45893 m -34.45347,-21.75692 c -3.0319,8.71454 -10.82981,13.41733 -16.62773,13.41733 -7.01018,0 -11.64294,-3.37277 -12.71142,-9.25312 -1.3201,-7.25747 4.06134,-12.68787 10.03279,-14.42198 9.58222,-2.78275 14.92957,-6.05202 17.03306,-7.15645 0.86023,-0.45181 1.3889,0.23427 2.07374,1.348 1.87045,3.04057 1.69568,11.76999 0.19956,16.06622 m 126.85515,-1.55314 c -2.25286,-1.7558 -6.16111,-2.80445 -10.45547,-2.80445 -4.09914,0 -7.99066,0.94763 -10.41023,2.53423 -1.82583,1.19677 -3.24758,2.77532 -4.75237,4.44559 -2.83543,3.1478 -5.76755,6.40219 -11.45391,7.03931 -0.0248,0.002 -0.0496,0.005 -0.0744,0.006 l -0.15742,0.007 c -0.19213,0.0105 -0.38487,0.0192 -0.5863,0.0192 -7.6504,0 -16.77399,-5.15584 -16.79816,-29.71845 0.0242,-24.56694 9.14776,-29.7234 16.79816,-29.7234 0.25535,0 0.50016,0.013 0.74372,0.0267 l 0.0812,0.004 c 0.0229,10e-4 0.0465,0.004 0.0694,0.006 5.63554,0.65881 8.55464,3.89709 11.37768,7.02877 1.50479,1.67028 2.92716,3.24758 4.75237,4.44435 2.41895,1.58661 6.31109,2.53299 10.41023,2.53299 4.29436,0 8.20323,-1.04803 10.45547,-2.80321 3.44714,-2.68731 4.99966,-6.21006 4.48959,-10.18711 -1.03873,-8.09973 -9.90078,-16.62463 -22.05131,-21.214 -2.10473,-0.79454 -12.68973,-3.88656 -23.82322,-3.53639 -29.22511,0.92221 -46.06666,20.32216 -46.20611,53.22497 0,0.0248 -0.001,0.0496 -0.002,0.0744 l 6.2e-4,0.0911 -0.002,0.14626 c 0.002,0.0248 0.003,0.0514 0.003,0.0769 0.13945,33.01561 17.08202,52.41679 46.48314,53.23117 0.88751,0.0347 1.77502,0.0527 2.65137,0.0527 7.42666,6.2e-4 14.65191,-1.24573 20.89482,-3.60395 12.15115,-4.58875 21.01258,-13.11489 22.05131,-21.21462 0.51007,-3.97705 -1.04307,-7.4998 -4.48959,-10.18649 M 357.42233,299.69053 h -1.68081 c -8.57013,0 -15.54189,7.76258 -15.54189,17.30451 v 106.50014 c 0,9.54255 6.97176,17.30513 15.54189,17.30513 h 1.68081 c 8.57014,0 15.5419,-7.76258 15.5419,-17.30513 V 316.99504 c 0,-9.54193 -6.97176,-17.30451 -15.5419,-17.30451 m -213.98942,0 h -1.93925 c -9.88838,0 -17.93296,7.76258 -17.93296,17.30451 v 106.50014 c 0,9.54255 8.04458,17.30513 17.93296,17.30513 h 1.93925 c 9.88776,0 17.93172,-7.76258 17.93172,-17.30513 V 316.99504 c 0,-9.54193 -8.04396,-17.30451 -17.93172,-17.30451 m 70.7873,60.5097 h 6.39414 c 5.79172,0 10.50319,-5.2457 10.50319,-11.69376 0,-6.44743 -4.71147,-11.69252 -10.50319,-11.69252 h -6.39414 c -0.69476,0 -1.25812,-0.62721 -1.25812,-1.40068 v -18.41761 c 0,-9.54131 -6.97176,-17.3039 -15.54128,-17.3039 h -1.67957 c -8.57014,0 -15.54313,7.76259 -15.54313,17.3039 v 18.41761 c 0,0.77347 -0.56337,1.40068 -1.25813,1.40068 h -2.00495 c -5.7911,0 -10.50257,5.24509 -10.50257,11.69252 0,6.44806 4.71147,11.69376 10.50257,11.69376 h 2.00495 c 0.69476,0 1.25813,0.62721 1.25813,1.4013 v 60.14776 c 0,9.54132 6.97299,17.3039 15.54313,17.3039 h 20.11454 c 8.60794,0 13.95467,-4.94636 13.95467,-12.90851 v -1.4298 c 0,-6.24973 -4.00865,-11.58902 -9.53201,-12.69469 l -6.2e-4,-6.2e-4 c -0.0328,-0.005 -0.0651,-0.01 -0.0973,-0.0161 -0.0304,-0.004 -0.0744,-0.0112 -0.10474,-0.0161 -0.26464,-0.0483 -0.53052,-0.0954 -0.80074,-0.12333 -0.0502,-0.005 -0.1004,-0.0136 -0.14936,-0.0254 -3.25998,-0.78029 -5.55745,-3.49735 -6.14499,-7.26801 -0.0124,-0.0787 -0.0186,-0.15928 -0.0186,-0.23985 v -42.72921 c 0,-0.77409 0.56336,-1.4013 1.25812,-1.4013"
   id="path8"
   inkscape:connector-curvature="0"
   style="clip-rule:evenodd;fill:#15284c;fill-rule:evenodd;stroke-width:0.61976695;fill-opacity:1"
   inkscape:export-filename="G:\Users\suitedoalex\sites\italac-logo-4.png"
   inkscape:export-xdpi="84.922562"
   inkscape:export-ydpi="84.922562" />
<path
   d="m 571.37519,329.64944 c 0,-2.16484 -1.65602,-2.72325 -3.62812,-2.72325 h -2.75114 c -0.92531,0 -1.11992,0.44189 -1.11992,0.97737 v 7.19239 c 0,0.74496 0.24295,1.11744 1.09513,1.11744 0.85218,0 1.09574,-0.46544 1.09574,-1.11744 v -2.74618 h 0.73071 l 1.53392,2.74618 c 0.3167,0.55903 0.56027,1.11744 1.33932,1.11744 0.80322,0 1.14409,-0.30244 1.14409,-0.81437 0,-0.14007 -0.0483,-0.30307 -0.14627,-0.489 l -1.72853,-2.70032 c 1.55872,-0.0694 2.43507,-0.90734 2.43507,-2.56026 m -3.48185,1.02386 h -1.82646 v -2.07126 h 1.82646 c 0.80322,0 1.29035,0.20948 1.29035,1.0474 0,0.83793 -0.48713,1.02386 -1.29035,1.02386 m -0.41401,-7.82084 c -4.94264,0 -8.95997,3.84069 -8.95997,8.5658 0,4.7251 4.01733,8.5658 8.95997,8.5658 4.94265,0 8.95997,-3.8407 8.95997,-8.5658 0,-4.72511 -4.01732,-8.5658 -8.95997,-8.5658 m 0,15.03678 c -3.74959,0 -6.76909,-2.88625 -6.76909,-6.47098 0,-3.58474 3.0195,-6.47099 6.76909,-6.47099 3.74959,0 6.7691,2.88625 6.7691,6.47099 0,3.58473 -3.01951,6.47098 -6.7691,6.47098"
   id="path10"
   inkscape:connector-curvature="0"
   style="clip-rule:evenodd;fill:#15284c;fill-rule:evenodd;stroke-width:0.61976695;fill-opacity:1"
   inkscape:export-filename="G:\Users\suitedoalex\sites\italac-logo-4.png"
   inkscape:export-xdpi="84.922562"
   inkscape:export-ydpi="84.922562" />
</svg>