<svg xmlns="http://www.w3.org/2000/svg" xmlns:xlink="http://www.w3.org/1999/xlink" viewBox="0 0 162 162"><path d="M 133.335 90.555 C 136.05 68.46 125.595 49.2 92.04 52.035 C 56.79 55.02 64.17 37.2 46.815 41.25 C 28.335 45.57 16.395 98.25 54.63 113.355 C 89.835 127.275 129.135 124.635 133.335 90.555 Z" fill="hsl(0, 0%, 100%)"></path><path d="M 119.355 96.405 C 116.82 94.275 109.365 92.64 109.365 92.64 L 111.495 84.945 C 132.375 68.565 112.56 57.42 108.3 69.3 C 107.07 73.14 107.325 75.93 106.665 80.595 C 104.37 84.69 93.81 83.865 96.27 76.59 C 97.5 72.99 103.065 72.405 102.975 68.16 C 102.975 66.435 101.415 64.635 98.475 64.725 C 95.535 64.8 92.415 67.92 90.945 73.89 C 88.815 82.485 93.885 90.27 105.675 87.24 C 105.345 88.635 104.775 90.435 104.37 91.665 C 92.085 90.525 80.46 96.66 83.655 106.815 C 84.96 110.505 88.245 112.545 92.085 112.545 C 100.845 112.71 105.27 103.86 107.565 97.23 C 114.615 99.03 111.99 106.875 118.215 106.56 C 123.825 106.275 123.615 99.105 119.355 96.405 Z M 114.855 69.63 C 117.975 70.32 113.79 75.93 112.155 77.895 C 112.305 77.16 111.54 68.895 114.855 69.63 Z M 91.845 103.035 C 89.055 100.83 95.535 95.25 102.165 95.985 C 98.475 102.54 94.455 105 91.845 103.035 Z" fill="#0047ba"></path><path d="M 85.59 89.13 C 85.59 86.19 82.155 84.795 78.795 87.075 C 76.425 88.8 71.1 90.015 67.005 89.13 L 85.35 74.145 C 89.115 71.115 90.015 68.91 88.29 66.615 C 86.895 64.815 84.195 64.32 81.405 65.715 C 75.75 68.58 70.515 64.575 64.695 64.65 C 56.1 64.725 54.135 73.245 63.225 73.65 C 68.385 73.815 73.455 69.81 79.11 71.445 C 79.11 71.445 60.765 86.43 63.135 84.54 C 56.835 89.61 53.22 89.865 52.905 92.805 C 52.665 94.275 53.97 96.495 57.495 96.495 C 62.16 96.495 62.415 94.035 66.18 94.125 C 69.87 94.2 70.515 96.495 76.095 96.495 C 82.47 96.495 85.59 92.805 85.59 89.13 Z M 45.99 96.435 C 38.385 95.79 40.575 86.565 42.675 78.24 C 43.965 73.065 42.36 71.775 43.245 68.37 C 44.13 64.98 46.245 64.335 48.735 64.74 C 52.455 65.31 52.05 69.51 51.165 72.255 C 49.875 76.38 49.23 78.405 48.825 79.86 C 45.99 89.64 50.76 87.945 50.76 92.31 C 50.76 95.55 48.015 96.6 45.99 96.435 Z M 53.19 58.92 C 53.19 56.625 52.14 54.72 48.84 54.765 C 45.975 54.81 44.49 56.625 44.49 58.92 C 44.49 61.215 46.065 63.24 48.84 63.075 C 51.975 62.88 53.19 61.215 53.19 58.92 Z" fill="#0047ba"></path></svg>